<?xml version="1.0" encoding="UTF-8"?>
<svg version="1.1" xmlns="http://www.w3.org/2000/svg" width="167" height="63">
<path d="M0 0 C4.47870656 2.15937638 7.18198188 4.92952939 10 9 C11.81020278 14.43060835 11.70097747 19.09743772 9.3125 24.25 C7.04824738 28.35143979 4.19903639 30.90048181 0 33 C-1.97799703 33.07115097 -3.95834145 33.08409082 -5.9375 33.0625 C-6.99839844 33.05347656 -8.05929688 33.04445312 -9.15234375 33.03515625 C-10.09207031 33.02355469 -11.03179687 33.01195312 -12 33 C-15.00795167 32.65490872 -15.00795167 32.65490872 -16.60546875 34.53125 C-17.38857422 35.50578125 -17.38857422 35.50578125 -18.1875 36.5 C-18.98220703 37.47453125 -18.98220703 37.47453125 -19.79296875 38.46875 C-20.19128906 38.9740625 -20.58960938 39.479375 -21 40 C-18.36 40 -15.72 40 -13 40 C-13 42.31 -13 44.62 -13 47 C-18.94 47 -24.88 47 -31 47 C-31 39.125 -31 39.125 -27.5 35.0625 C-26.8503125 34.29035156 -26.200625 33.51820312 -25.53125 32.72265625 C-25.0259375 32.15417969 -24.520625 31.58570312 -24 31 C-26.31 30.67 -28.62 30.34 -31 30 C-31 27.69 -31 25.38 -31 23 C-28.03 23 -25.06 23 -22 23 C-22.33 22.34 -22.66 21.68 -23 21 C-23.5464078 14.66166953 -22.64148894 10.28074442 -19 5 C-13.02223658 -0.55078032 -7.96337584 -0.75047521 0 0 Z " fill="#F9A353" transform="translate(156,0)"/>
<path d="M0 0 C1.134375 0.020625 2.26875 0.04125 3.4375 0.0625 C3.4375 0.7225 3.4375 1.3825 3.4375 2.0625 C3.9325 1.711875 4.4275 1.36125 4.9375 1 C8.73944044 -0.42572766 11.46034108 0.29272731 15.4375 1.0625 C16.0975 1.7225 16.7575 2.3825 17.4375 3.0625 C18.13875 2.5675 18.84 2.0725 19.5625 1.5625 C22.97266525 -0.21671665 24.64303658 -0.55700423 28.4375 0.0625 C31.11623753 1.68427574 32.63913476 2.60938844 34.4375 5.0625 C35.16562523 8.36573818 35.0080532 11.51298914 34.8125 14.875 C34.77189453 16.20047852 34.77189453 16.20047852 34.73046875 17.55273438 C34.66005869 19.72371114 34.55244606 21.89342529 34.4375 24.0625 C32.1275 24.0625 29.8175 24.0625 27.4375 24.0625 C27.37691406 23.07507813 27.31632812 22.08765625 27.25390625 21.0703125 C27.12822266 19.14832031 27.12822266 19.14832031 27 17.1875 C26.87818359 15.27324219 26.87818359 15.27324219 26.75390625 13.3203125 C26.64543973 10.17949848 26.64543973 10.17949848 25.4375 8.0625 C23.7875 8.3925 22.1375 8.7225 20.4375 9.0625 C20.1075 14.0125 19.7775 18.9625 19.4375 24.0625 C16.7975 24.0625 14.1575 24.0625 11.4375 24.0625 C11.1075 19.1125 10.7775 14.1625 10.4375 9.0625 C8.7875 8.7325 7.1375 8.4025 5.4375 8.0625 C3.9567152 11.0240696 4.08435963 13.89756295 3.875 17.1875 C3.79121094 18.46882813 3.70742187 19.75015625 3.62109375 21.0703125 C3.56050781 22.05773437 3.49992187 23.04515625 3.4375 24.0625 C0.7975 24.0625 -1.8425 24.0625 -4.5625 24.0625 C-4.59137236 20.25001574 -4.60925492 16.4375593 -4.625 12.625 C-4.63337891 11.53638672 -4.64175781 10.44777344 -4.65039062 9.32617188 C-4.65361328 8.29169922 -4.65683594 7.25722656 -4.66015625 6.19140625 C-4.66539307 5.23306885 -4.67062988 4.27473145 -4.67602539 3.28735352 C-4.485981 -0.43710794 -3.87977738 0.06806627 0 0 Z " fill="#2F4ECC" transform="translate(61.5625,22.9375)"/>
<path d="M0 0 C2.64 0 5.28 0 8 0 C8 3.63 8 7.26 8 11 C11.3 11 14.6 11 18 11 C18 7.37 18 3.74 18 0 C20.64 0 23.28 0 26 0 C26 9.57 26 19.14 26 29 C23.36 29 20.72 29 18 29 C18 25.04 18 21.08 18 17 C14.7 17 11.4 17 8 17 C8 20.96 8 24.92 8 29 C5.36 29 2.72 29 0 29 C0 19.43 0 9.86 0 0 Z " fill="#2F4FCD" transform="translate(2,18)"/>
<path d="M0 0 C2.64 0 5.28 0 8 0 C9.65 3.96 11.3 7.92 13 12 C14.65 8.04 16.3 4.08 18 0 C20.64 0 23.28 0 26 0 C25.32574837 4.21407267 23.94711857 7.86156297 22.3125 11.796875 C21.91865112 12.74823334 21.91865112 12.74823334 21.5168457 13.71881104 C20.96424994 15.05091169 20.40944136 16.38209634 19.85253906 17.71240234 C18.99779801 19.75526283 18.15072803 21.8011793 17.3046875 23.84765625 C13.14478828 33.85521172 13.14478828 33.85521172 12 35 C9.32941149 35.14115161 6.67567762 35.04247107 4 35 C4.20496094 34.39671875 4.40992187 33.7934375 4.62109375 33.171875 C4.89050781 32.37265625 5.15992187 31.5734375 5.4375 30.75 C5.70433594 29.96109375 5.97117187 29.1721875 6.24609375 28.359375 C6.61927734 27.19148438 6.61927734 27.19148438 7 26 C7.21462891 25.38294189 7.42925781 24.76588379 7.65039062 24.13012695 C8.09880664 21.39798328 7.47821388 20.06936825 6.34765625 17.55859375 C5.98349609 16.72779297 5.61933594 15.89699219 5.24414062 15.04101562 C4.65922852 13.75227539 4.65922852 13.75227539 4.0625 12.4375 C3.29864236 10.72997849 2.53931746 9.02041999 1.78515625 7.30859375 C1.44363525 6.55376709 1.10211426 5.79894043 0.75024414 5.02124023 C0 3 0 3 0 0 Z " fill="#2F4FCC" transform="translate(98,23)"/>
<path d="M0 0 C4.95848708 3.71886531 4.95848708 3.71886531 5.8671875 6.73828125 C6.45797153 11.92106844 6.41190148 15.26083793 3.25 19.6875 C-0.3786875 22.88928309 -3.85752105 23.21043256 -8.53125 23.0390625 C-12.05742007 22.48033837 -14.13076691 21.05119816 -16.75 18.6875 C-19.03982738 15.10342236 -19.02009985 11.86581589 -18.36328125 7.6875 C-17.28506775 4.17128784 -15.37067492 2.2457779 -12.75 -0.3125 C-8.21551342 -1.82399553 -4.37258684 -2.08691645 0 0 Z M-9.625 6.75 C-11.29076174 9.61881188 -10.56342372 11.56937574 -9.75 14.6875 C-8.69570314 15.95222065 -8.69570314 15.95222065 -6.3125 15.9375 C-5.466875 15.855 -4.62125 15.7725 -3.75 15.6875 C-1.38307034 12.83923402 -1.38307034 12.83923402 -2.125 9.5 C-2.33125 8.571875 -2.5375 7.64375 -2.75 6.6875 C-6.28183097 5.57010127 -6.28183097 5.57010127 -9.625 6.75 Z " fill="#2F4FCC" transform="translate(48.75,24.3125)"/>
<path d="M0 0 C5.78591511 -0.10477512 11.29309366 0.00749455 17 1 C17.59578358 5.00026118 17.63996562 6.98632012 15.44140625 10.46875 C13.68414992 12.70332947 11.88845449 14.8754887 10 17 C12.64 17 15.28 17 18 17 C18 19.31 18 21.62 18 24 C12.06 24 6.12 24 0 24 C0 16.125 0 16.125 3.5 12.0625 C4.1496875 11.29035156 4.799375 10.51820312 5.46875 9.72265625 C5.9740625 9.15417969 6.479375 8.58570313 7 8 C4.69 7.67 2.38 7.34 0 7 C0 4.69 0 2.38 0 0 Z " fill="#2F4FCC" transform="translate(125,23)"/>
</svg>
